<?xml version="1.0" encoding="UTF-8" standalone="no"?>
<svg
   viewBox="0 0 320 100.00001"
   version="1.1"
   id="svg6"
   sodipodi:docname="logo.svg"
   inkscape:version="1.4.2 (f4327f4, 2025-05-13)"
   inkscape:export-filename="..\..\.github\assets\logo.png"
   inkscape:export-xdpi="153.60001"
   inkscape:export-ydpi="153.60001"
   xml:space="preserve"
   xmlns:inkscape="http://www.inkscape.org/namespaces/inkscape"
   xmlns:sodipodi="http://sodipodi.sourceforge.net/DTD/sodipodi-0.dtd"
   xmlns:xlink="http://www.w3.org/1999/xlink"
   xmlns="http://www.w3.org/2000/svg"
   xmlns:svg="http://www.w3.org/2000/svg"><sodipodi:namedview
     id="namedview6"
     pagecolor="#505050"
     bordercolor="#ffffff"
     borderopacity="1"
     inkscape:showpageshadow="0"
     inkscape:pageopacity="0"
     inkscape:pagecheckerboard="1"
     inkscape:deskcolor="#505050"
     showguides="true"
     inkscape:zoom="2"
     inkscape:cx="130.5"
     inkscape:cy="73.75"
     inkscape:window-width="1920"
     inkscape:window-height="1009"
     inkscape:window-x="-8"
     inkscape:window-y="-8"
     inkscape:window-maximized="1"
     inkscape:current-layer="svg6" /><defs
     id="defs2"><inkscape:path-effect
       effect="fillet_chamfer"
       id="path-effect1"
       is_visible="true"
       lpeversion="1"
       nodesatellites_param="F,0,0,1,0,0,0,1 @ F,0,1,1,0,125,0,1 @ F,0,0,1,0,0,0,1 @ F,0,1,1,0,125,0,1 @ F,0,0,1,0,0,0,1 @ F,0,1,1,0,125,0,1 @ F,0,0,1,0,0,0,1 @ F,0,1,1,0,125,0,1"
       radius="125"
       unit="px"
       method="auto"
       mode="F"
       chamfer_steps="1"
       flexible="false"
       use_knot_distance="true"
       apply_no_radius="true"
       apply_with_radius="true"
       only_selected="true"
       hide_knots="false" /><inkscape:path-effect
       effect="fillet_chamfer"
       id="path-effect9"
       is_visible="true"
       lpeversion="1"
       nodesatellites_param="F,0,0,1,0,18.886584,0,1 @ F,0,0,1,0,18.886584,0,1 @ F,0,0,1,0,42.510343,0,1"
       radius="0"
       unit="px"
       method="auto"
       mode="F"
       chamfer_steps="1"
       flexible="false"
       use_knot_distance="true"
       apply_no_radius="true"
       apply_with_radius="true"
       only_selected="false"
       hide_knots="false" /><inkscape:path-effect
       effect="fillet_chamfer"
       id="path-effect8"
       is_visible="true"
       lpeversion="1"
       nodesatellites_param="F,0,0,1,0,0,0,1 @ F,0,0,1,0,0,0,1 @ F,0,0,1,0,0,0,1 @ F,0,0,1,0,3.7614127,0,1"
       radius="0"
       unit="px"
       method="auto"
       mode="F"
       chamfer_steps="1"
       flexible="false"
       use_knot_distance="true"
       apply_no_radius="true"
       apply_with_radius="true"
       only_selected="false"
       hide_knots="false" /><linearGradient
       id="New_Gradient_Swatch_1"
       x1="2.71"
       x2="69.769997"
       y1="20.040001"
       y2="20.040001"
       gradientUnits="userSpaceOnUse"
       gradientTransform="matrix(1.4721835,0,0,1.4721835,81.318043,8.0313393)"><stop
         offset="0"
         stop-color="#12b212"
         id="stop1" /><stop
         offset="1"
         stop-color="#0f0"
         id="stop2" /></linearGradient><style
       id="style2">.cls-2{fill:#980200}.cls-3{fill:red}</style><inkscape:path-effect
       effect="fillet_chamfer"
       id="path-effect1-0"
       is_visible="true"
       lpeversion="1"
       nodesatellites_param="F,0,0,1,0,0,0,1 @ F,0,1,1,0,125,0,1 @ F,0,0,1,0,0,0,1 @ F,0,1,1,0,125,0,1 @ F,0,0,1,0,0,0,1 @ F,0,1,1,0,125,0,1 @ F,0,0,1,0,0,0,1 @ F,0,1,1,0,125,0,1"
       radius="125"
       unit="px"
       method="auto"
       mode="F"
       chamfer_steps="1"
       flexible="false"
       use_knot_distance="true"
       apply_no_radius="true"
       apply_with_radius="true"
       only_selected="true"
       hide_knots="false" /><inkscape:path-effect
       effect="fillet_chamfer"
       id="path-effect1-0-8"
       is_visible="true"
       lpeversion="1"
       nodesatellites_param="F,0,0,1,0,0,0,1 @ F,0,1,1,0,125,0,1 @ F,0,0,1,0,0,0,1 @ F,0,1,1,0,125,0,1 @ F,0,0,1,0,0,0,1 @ F,0,1,1,0,125,0,1 @ F,0,0,1,0,0,0,1 @ F,0,1,1,0,125,0,1"
       radius="125"
       unit="px"
       method="auto"
       mode="F"
       chamfer_steps="1"
       flexible="false"
       use_knot_distance="true"
       apply_no_radius="true"
       apply_with_radius="true"
       only_selected="true"
       hide_knots="false" /><linearGradient
       inkscape:collect="always"
       xlink:href="#linearGradient6-0"
       id="linearGradient7-0"
       x1="0"
       y1="27.343773"
       x2="41.741669"
       y2="100"
       gradientUnits="userSpaceOnUse" /><linearGradient
       id="linearGradient6-0"
       inkscape:collect="always"><stop
         style="stop-color:#ff00ff;stop-opacity:1;"
         offset="0"
         id="stop6-9" /><stop
         style="stop-color:#de9b3b;stop-opacity:1;"
         offset="1"
         id="stop7-4" /></linearGradient></defs><g
     id="text1"
     style="font-weight:bold;font-size:53.3333px;line-height:1;font-family:inter;-inkscape-font-specification:'inter Bold';fill:currentColor;stroke-width:5;stroke-linejoin:round;stroke-miterlimit:0;paint-order:markers fill stroke"
     aria-label="Native&#10;AI"><path
       d="M 113.90636,43.354774 V 4.5527143 h 8.4375 l 12.47395,19.8437377 q 0.57291,0.911458 1.45833,2.447916 0.88542,1.536457 1.84896,3.307289 0.98958,1.744791 1.875,3.385415 l -0.91146,2.05729 q -0.0781,-1.770832 -0.15625,-4.062497 -0.0781,-2.317707 -0.10417,-4.453122 -0.026,-2.135416 -0.026,-3.333332 V 4.5527143 h 7.99479 V 43.354774 h -8.46354 L 127.03135,25.386035 q -0.70312,-1.119791 -1.77083,-2.916665 -1.06771,-1.822915 -2.39583,-4.114581 -1.30208,-2.317707 -2.70833,-4.89583 l 1.40625,-0.911458 q 0.15625,2.864582 0.23437,5.390622 0.0781,2.499998 0.10417,4.427081 0.026,1.90104 0.026,2.99479 v 17.99478 z m 46.90102,0.46875 q -2.73438,0 -4.86979,-0.911458 -2.13542,-0.911457 -3.35938,-2.734373 -1.22395,-1.848957 -1.22395,-4.583331 0,-2.317707 0.85937,-3.854164 0.85938,-1.562499 2.34375,-2.499998 1.51042,-0.963542 3.4375,-1.458333 1.95312,-0.494791 4.08854,-0.677083 2.52604,-0.260416 4.01041,-0.494791 1.48438,-0.234375 2.13542,-0.677083 0.65104,-0.442708 0.65104,-1.328124 v -0.182292 q 0,-1.015624 -0.54688,-1.770832 -0.54687,-0.78125 -1.5625,-1.223958 -0.98958,-0.442708 -2.39583,-0.442708 -1.40625,0 -2.5,0.442708 -1.0677,0.442708 -1.6927,1.249999 -0.625,0.807292 -0.72917,1.874999 h -7.21354 q 0.18229,-2.83854 1.66667,-4.921872 1.51041,-2.083332 4.21875,-3.203123 2.70833,-1.145832 6.48437,-1.145832 2.8125,0 5.02604,0.651041 2.21354,0.624999 3.72395,1.848957 1.53646,1.223958 2.31771,2.968748 0.78125,1.744791 0.78125,3.958331 v 18.645822 h -7.5 v -3.880206 h -0.10416 q -0.72917,1.354166 -1.79688,2.317707 -1.0677,0.963541 -2.60416,1.510416 -1.53646,0.520833 -3.64583,0.520833 z m 2.13541,-5.338538 q 1.84896,0 3.17708,-0.677083 1.35417,-0.677083 2.08334,-1.848957 0.72916,-1.171875 0.72916,-2.656249 v -2.760415 q -0.33854,0.182292 -0.88541,0.364583 -0.54688,0.15625 -1.27605,0.3125 -0.72916,0.130208 -1.58854,0.286458 -0.85937,0.15625 -1.77083,0.286458 -1.32812,0.208334 -2.39583,0.651042 -1.06771,0.416666 -1.69271,1.145832 -0.625,0.703125 -0.625,1.796874 0,0.963541 0.52084,1.666666 0.52083,0.703124 1.48437,1.067708 0.96354,0.364583 2.23958,0.364583 z m 34.73956,-22.630195 v 6.015621 H 179.63549 V 15.854791 Z M 184.37507,8.3547953 h 7.68229 V 34.865196 q 0,1.380208 0.54687,1.927082 0.57292,0.546875 2.13542,0.546875 0.65104,0 1.53646,0 0.91145,0 1.40624,0 v 6.015621 q -0.70312,0 -1.95312,0 -1.25,0 -2.52604,0 -4.53125,0 -6.6927,-1.770832 -2.13542,-1.770832 -2.13542,-5.52083 z M 201.53652,43.354774 V 15.854791 h 7.68228 v 27.499983 z m 3.82812,-30.963523 q -1.90104,0 -3.15104,-1.145832 -1.25,-1.171875 -1.25,-2.942707 0,-1.7708322 1.25,-2.9166649 1.25,-1.1718743 3.125,-1.1718743 1.90104,0 3.15104,1.1718743 1.25,1.1458327 1.25,2.9166649 0,1.770832 -1.25,2.942707 -1.25,1.145832 -3.125,1.145832 z m 17.05728,30.963523 -10.18228,-27.499983 h 8.04687 l 4.53125,13.593742 q 0.80729,2.421873 1.51041,4.843747 0.70313,2.421873 1.40625,4.869789 h -1.82291 q 0.67708,-2.447916 1.35416,-4.869789 0.70313,-2.421874 1.45833,-4.843747 l 4.47917,-13.593742 h 7.96874 l -10.20832,27.499983 z m 33.33952,0.625 q -4.16667,0 -7.26562,-1.822915 -3.07292,-1.848958 -4.79167,-5.104164 -1.6927,-3.255206 -1.6927,-7.421871 0,-4.218747 1.71874,-7.447912 1.7448,-3.255206 4.79167,-5.104164 3.04687,-1.848957 6.97916,-1.848957 3.04687,0 5.52083,1.041666 2.47396,1.015625 4.27083,2.942707 1.79688,1.90104 2.76042,4.505206 0.98958,2.604165 0.98958,5.755204 v 2.057291 h -24.29686 v -4.895831 h 20.59895 l -3.46354,1.171875 q 0,-2.083332 -0.75521,-3.593748 -0.75521,-1.510416 -2.16146,-2.317707 -1.38021,-0.833333 -3.30729,-0.833333 -1.90104,0 -3.28125,0.833333 -1.3802,0.807291 -2.13541,2.317707 -0.75521,1.510416 -0.75521,3.593748 v 3.333331 q 0,2.135415 0.75521,3.749998 0.78125,1.588541 2.23958,2.473957 1.45833,0.859374 3.51562,0.859374 1.51042,0 2.65625,-0.416666 1.17188,-0.442708 1.95312,-1.223958 0.8073,-0.807291 1.14584,-1.874999 h 7.0052 q -0.49479,2.734374 -2.31771,4.817706 -1.82291,2.083332 -4.58333,3.281248 -2.76041,1.171874 -6.09374,1.171874 z"
       id="path1" /><path
       d="m 111.25011,96.688076 13.61979,-38.80206 h 10.31249 l 13.61979,38.80206 h -8.88021 l -6.09374,-18.880197 q -1.1198,-3.723956 -2.31771,-7.656245 -1.17188,-3.958331 -2.55208,-8.98437 h 2.21354 q -1.43229,5.026039 -2.63021,8.98437 -1.17187,3.932289 -2.34375,7.656245 l -6.30208,18.880197 z m 8.64583,-8.463537 v -6.406246 h 20.28645 v 6.406246 z m 40.0781,-30.338523 v 38.80206 h -8.02083 v -38.80206 z"
       id="path2" /></g><path
     id="path17-8"
     style="fill:url(#linearGradient7-0);stroke-width:1.5;stroke-linecap:round;stroke-linejoin:round;stroke-miterlimit:0"
     d="M 39.126953,0 A 54.990558,54.990558 0 0 1 7.742187,30.570312 54.990554,54.990554 0 0 1 38.3125,61.95508 54.990554,54.990554 0 0 1 69.69727,31.38477 54.990552,54.990552 0 0 1 39.126953,0 Z M 74.43359,38.3457 A 45.991316,45.991316 0 0 1 48.18555,63.91406 45.991312,45.991312 0 0 1 73.75195,90.16211 45.991312,45.991312 0 0 1 100,64.59375 45.991312,45.991312 0 0 1 74.43359,38.3457 Z M 21.685547,57.19336 A 37.994443,37.994443 0 0 1 0,78.31445 37.994441,37.994441 0 0 1 21.121094,100 37.994441,37.994441 0 0 1 42.80664,78.87891 37.994439,37.994439 0 0 1 21.685547,57.19336 Z" /></svg>
